<svg xmlns="http://www.w3.org/2000/svg" version="1.1" xmlns:xlink="http://www.w3.org/1999/xlink" width="32" height="32" x="0" y="0" viewBox="0 0 64 64" style="enable-background:new 0 0 512 512" xml:space="preserve"><g><path d="M51 30H41a1 1 0 0 0 0 2h10a1 1 0 0 0 0-2ZM51 34H41a1 1 0 0 0 0 2h10a1 1 0 0 0 0-2ZM41 20a1 1 0 0 0 0 2h10a1 1 0 0 0 0-2ZM51 24H41a1 1 0 0 0 0 2h10a1 1 0 0 0 0-2Z" fill="#0C2B4B" opacity="1" data-original="#000000"></path><path d="M59 8H49V7a1 1 0 0 0-1-1h-4.34a6 6 0 0 0-11.32 0H28a1 1 0 0 0-1 1v1H17a3.009 3.009 0 0 0-3 3v9a1 1 0 0 0-1 1v3.75l-.42.18-2.65-2.66a1.047 1.047 0 0 0-1.42 0l-4.24 4.24a1.008 1.008 0 0 0 0 1.42l2.66 2.65-.18.42H3a1 1 0 0 0-1 1v6a1 1 0 0 0 1 1h3.75l.18.42-2.66 2.65a1.008 1.008 0 0 0 0 1.42l4.24 4.24a1.014 1.014 0 0 0 1.42 0l2.65-2.66.42.18V49a1 1 0 0 0 1 1v9a3.009 3.009 0 0 0 3 3h42a3.009 3.009 0 0 0 3-3V11a3.009 3.009 0 0 0-3-3ZM29 8h4.1a1 1 0 0 0 .98-.8 4 4 0 0 1 7.84 0 1 1 0 0 0 .98.8H47v6H29Zm-1 8h20a1 1 0 0 0 1-1v-1h7v34h-7a1 1 0 0 0-1 1v7H20v-6a1 1 0 0 0 1-1v-3.75l.42-.18 2.65 2.66a1.047 1.047 0 0 0 1.42 0l4.24-4.24a1.008 1.008 0 0 0 0-1.42l-2.66-2.65.18-.42H31a1 1 0 0 0 1-1v-6a1 1 0 0 0-1-1h-3.75l-.18-.42 2.66-2.65a1.008 1.008 0 0 0 0-1.42l-4.24-4.24a1.014 1.014 0 0 0-1.42 0l-2.65 2.66-.42-.18V21a1 1 0 0 0-1-1v-6h7v1a1 1 0 0 0 1 1Zm26.59 34L50 54.59V50ZM16 11a1 1 0 0 1 1-1h10v2h-8a1 1 0 0 0-1 1v7h-2Zm-1.69 32.59a7.906 7.906 0 0 1-1.45-.61 1.016 1.016 0 0 0-1.19.17l-2.45 2.46-2.83-2.83 2.46-2.45a1.016 1.016 0 0 0 .17-1.19 8.214 8.214 0 0 1-.61-1.45 1 1 0 0 0-.95-.69H4v-4h3.46a1 1 0 0 0 .95-.69 8.214 8.214 0 0 1 .61-1.45 1.016 1.016 0 0 0-.17-1.19l-2.46-2.45 2.83-2.83 2.45 2.46a1.016 1.016 0 0 0 1.19.17 7.906 7.906 0 0 1 1.45-.61 1 1 0 0 0 .69-.95V22h4v3.46a1 1 0 0 0 .69.95 7.906 7.906 0 0 1 1.45.61 1.016 1.016 0 0 0 1.19-.17l2.45-2.46 2.83 2.83-2.46 2.45a1.016 1.016 0 0 0-.17 1.19 8.214 8.214 0 0 1 .61 1.45 1 1 0 0 0 .95.69H30v4h-3.46a1 1 0 0 0-.95.69 8.214 8.214 0 0 1-.61 1.45 1.016 1.016 0 0 0 .17 1.19l2.46 2.45-2.83 2.83-2.45-2.46a1.016 1.016 0 0 0-1.19-.17 7.906 7.906 0 0 1-1.45.61 1 1 0 0 0-.69.95V48h-4v-3.46a1 1 0 0 0-.69-.95ZM60 59a1 1 0 0 1-1 1H17a1 1 0 0 1-1-1v-9h2v7a1 1 0 0 0 1 1h30a1.033 1.033 0 0 0 .71-.29l8-8A1.033 1.033 0 0 0 58 49V13a1 1 0 0 0-1-1h-8v-2h10a1 1 0 0 1 1 1Z" fill="#0C2B4B" opacity="1" data-original="#000000"></path><path d="M24 35a7 7 0 1 0-7 7 7.008 7.008 0 0 0 7-7Zm-12 0a5 5 0 1 1 5 5 5.006 5.006 0 0 1-5-5Z" fill="#0C2B4B" opacity="1" data-original="#000000"></path><path d="M20.242 32.757a1 1 0 0 0-1.414 0L16 35.586l-.707-.707a1 1 0 1 0-1.414 1.414l1.414 1.414a1 1 0 0 0 1.414 0l3.535-3.536a1 1 0 0 0 0-1.414ZM36 22h1a1 1 0 0 0 0-2h-1a1 1 0 0 0 0 2ZM36 26h1a1 1 0 0 0 0-2h-1a1 1 0 0 0 0 2ZM36 32h1a1 1 0 0 0 0-2h-1a1 1 0 0 0 0 2ZM36 36h1a1 1 0 0 0 0-2h-1a1 1 0 0 0 0 2ZM51 40H41a1 1 0 0 0 0 2h10a1 1 0 0 0 0-2ZM51 44H41a1 1 0 0 0 0 2h10a1 1 0 0 0 0-2ZM45 50H25a1 1 0 0 0 0 2h20a1 1 0 0 0 0-2ZM36 42h1a1 1 0 0 0 0-2h-1a1 1 0 0 0 0 2ZM36 46h1a1 1 0 0 0 0-2h-1a1 1 0 0 0 0 2Z" fill="#0C2B4B" opacity="1" data-original="#000000"></path></g></svg>