<svg xmlns="http://www.w3.org/2000/svg" version="1.1" xmlns:xlink="http://www.w3.org/1999/xlink" width="32" height="32" x="0" y="0" viewBox="0 0 512 512" style="enable-background:new 0 0 512 512" xml:space="preserve" class=""><g><path d="M388.104 457.736c-4.072 0-7.384 3.313-7.384 7.384v14.545c0 9.686-7.881 17.567-17.568 17.567H224.95c-9.686 0-17.567-7.88-17.567-17.567v-222.91c0-4.072-3.313-7.384-7.385-7.384-4.072 0-7.385 3.313-7.385 7.384v222.91c0 17.829 14.506 32.335 32.336 32.335h138.202c17.83 0 32.336-14.506 32.336-32.335V465.12c.001-4.072-3.311-7.384-7.383-7.384z" fill="#0C2B4B" opacity="1" data-original="#000000" class=""></path><path d="M377.638 53.225h-73.971c.155-3.6-.197-7.165-1.065-10.627l61.54-6.302c.135-.013.269-.021.404-.021 1.05 0 2.073.405 2.879 1.14a18.882 18.882 0 0 0 14.662 4.829c7.745-.793 13.996-5.905 16.314-13.338 2.318-7.429.083-15.183-5.833-20.237C385.93 2.998 377.841 0 369.176 0c-1.248 0-2.516.065-3.767.193l-98.905 10.126c-16.847 1.726-30.805 13.346-35.559 29.601a37.198 37.198 0 0 0-1.884 12.842c.174 5.87 1.768 11.46 4.444 16.42h-13.607c-5.977 0-10.84 4.863-10.84 10.84v2.821h-33.496c-21.065 0-38.202 17.137-38.202 38.201v187.914c-9.151.809-16.354 8.506-16.354 17.864v17.603l-14.879 108.753a18.133 18.133 0 0 0 17.97 20.594h41.199a18.135 18.135 0 0 0 17.97-20.594l-14.879-108.753v-17.603c0-9.325-7.152-17.005-16.257-17.859V121.045c0-12.921 10.512-23.433 23.433-23.433h33.496v2.82c0 5.977 4.863 10.839 10.84 10.839h39.12v1.498c-37.629 6.295-66.404 39.072-66.404 78.462v9.704c0 4.072 3.313 7.384 7.385 7.384 4.072 0 7.385-3.313 7.385-7.384v-9.704c0-33.967 26.274-61.894 59.563-64.573l.037-.001a81.223 81.223 0 0 1 2.554-.162c.879-.036 1.76-.067 2.648-.067h43.732c2.377 0 4.872.147 7.417.437h.002c32.249 3.694 57.384 31.143 57.384 64.365v40.653h-88.747c-9.46 0-17.156 7.695-17.156 17.156v111.737c0 9.46 7.695 17.156 17.156 17.156h88.747V409.3c0 4.072 3.313 7.384 7.384 7.384 4.072 0 7.384-3.313 7.384-7.384V191.231c0-38.525-27.522-70.734-63.935-78.02v-24.2l67.102-.001c4.072 0 7.384-3.313 7.384-7.384-.001-15.661-12.742-28.401-28.403-28.401zM168.632 455.18a3.331 3.331 0 0 1-.799 2.67 3.332 3.332 0 0 1-2.538 1.154h-41.199a3.332 3.332 0 0 1-2.538-1.154 3.331 3.331 0 0 1-.799-2.67l14.07-102.838h19.733l14.07 102.838zm-15.016-128.358v10.752h-17.842v-10.752a3.18 3.18 0 0 1 3.175-3.176h11.492a3.18 3.18 0 0 1 3.175 3.176zm227.104 36.343h-88.747a2.39 2.39 0 0 1-2.387-2.387V249.04a2.39 2.39 0 0 1 2.387-2.387h88.747v116.512zM259.018 96.503h-35.191V83.951l23.821-.013a36.655 36.655 0 0 0 9.252 3.843 7.36 7.36 0 0 0 2.118.959v7.763zm14.76-23.492c-.487.17-.983.312-1.481.447-.11.03-.217.068-.328.096-.337.086-.682.147-1.023.217-.765.156-1.539.282-2.327.358-.078.007-.155.022-.233.029-.367.032-.739.037-1.11.051-.246.009-.491.029-.738.031-.045-.001-.09-.007-.135-.007-1.066 0-2.106-.068-3.089-.201l-.033-.005a21.575 21.575 0 0 1-1.788-.329c-.105-.023-.21-.046-.314-.071-.6-.143-1.192-.306-1.772-.498-.023-.008-.046-.017-.07-.024a21.897 21.897 0 0 1-1.759-.671l-.071-.03a22.529 22.529 0 0 1-1.69-.823c-.053-.028-.105-.059-.157-.088a22.74 22.74 0 0 1-1.546-.928l-.055-.035c-5.991-3.967-10.013-10.716-10.236-18.208-.079-2.659.316-5.3 1.173-7.854a7.66 7.66 0 0 0 .095-.304c3.036-10.521 12.031-18.04 22.916-19.155l98.905-10.126a22.016 22.016 0 0 1 2.233-.115c5.123 0 9.906 1.773 13.834 5.129 1.97 1.682 1.583 3.783 1.325 4.609-.258.826-1.137 2.778-3.719 3.043a4.164 4.164 0 0 1-3.218-1.06c-3.533-3.215-8.086-4.984-12.823-4.984-.633 0-1.273.032-1.902.097l-71.346 7.305a7.355 7.355 0 0 0-5.855 4.044 7.353 7.353 0 0 0 .279 7.11c2.524 4.194 3.597 8.995 3.103 13.885a22.877 22.877 0 0 1-.886 4.4c-.007.023-.019.043-.027.066a22.917 22.917 0 0 1-1.349 3.367l-.017.033c-.234.47-.489.926-.753 1.375-.05.084-.097.17-.148.254a23.03 23.03 0 0 1-1.24 1.817c-.063.084-.129.166-.194.25a22.802 22.802 0 0 1-3.872 3.891 22.57 22.57 0 0 1-6.554 3.608c-.002.003-.003.003-.005.004zm43.007 38.654c-.291-.004-.58-.005-.868-.005h-42.131V89.012l42.999-.001v22.654zm-20.634-37.423a36.6 36.6 0 0 0 1.439-2.066 36.644 36.644 0 0 0 2.39-4.183h77.658c4.655 0 8.924 2.332 11.455 6.249h-92.942z" fill="#0C2B4B" opacity="1" data-original="#000000" class=""></path></g></svg>