<svg xmlns="http://www.w3.org/2000/svg" version="1.1" xmlns:xlink="http://www.w3.org/1999/xlink" width="64" height="64" x="0" y="0" viewBox="0 0 512 512" style="enable-background:new 0 0 512 512" xml:space="preserve"><g><path d="M223.3 473h-36c-6.8 0-12.3-5.5-12.3-12.3v-12.3h60.7v12.3c-.1 6.8-5.6 12.3-12.4 12.3zm47.4-53.1c0-6.8-5.5-12.3-12.3-12.3H152c-6.8.1-12.2 5.5-12.2 12.3s5.5 12.3 12.3 12.3h106.3c6.8.1 12.3-5.5 12.3-12.3zM152 366.8c-16.4.3-16.1 24.4.1 24.7h106.3c6.6 0 12.4-5.6 12.3-12.3 0-6.8-5.5-12.3-12.3-12.3H152zm220.1-79.4-21.7-4.3-1.6-.3c-.9 4.8-5.5 28.4-6.4 32.7zM281 260.8c10.4 13.7 33.6 44.6 44.2 58.6l9.4-47.6c.2-1 .7-2.1 1.2-3 .1 0 .1-.1.1-.1 16.8-23.9 42.7-61 59.3-84.4zm-78.1-23.2 64.8 12.8L422 146.9c3.2-1.9 7.6-1.6 10.2 1.1 0 0 0 .1.1.1 2.8 2.6 3.1 7.1.9 10.1-25.7 36.5-51.4 73.2-77.1 109.7 20.9 4.1 59.5 11.7 80.8 15.9l62.8-203.6c-135.4 71.6-187.9 101.6-296.8 157.4zm51.3 113.1c1.2-24 10.7-46.6 26.7-63.2l-13.4-17.8-2.7-3.6-87.6-17.2c-7.3-1.2-8.8-11.9-2.1-15 47.9-24.9 96.4-50.1 144.2-75.1-16.4-52.2-67-87-121.7-83.5C94.5 82.1 47.4 211 123.5 281.7c20 18.7 31.6 43.1 32.8 69zM86.6 301.3l-17.9 17.9c-5.1 4.8-1.2 14 5.7 13.7 2.1 0 4.1-.8 5.7-2.4L98 312.7c7.4-7.6-3.8-18.7-11.4-11.4zM318.3 89.1c2.1 0 4.1-.8 5.7-2.4l17.9-17.9c7.4-7.6-3.8-18.7-11.4-11.4l-17.9 17.9c-5.2 4.8-1.2 14 5.7 13.8zM45.5 186H20.2c-10.6.2-10.6 15.9 0 16.1h25.3c10.6-.2 10.6-15.9 0-16.1zm41.1-99.3c1.6 1.6 3.6 2.4 5.7 2.4 6.9.2 10.8-9 5.7-13.7L80.1 57.5c-3.1-3.1-8.2-3.1-11.4 0-3.1 3.1-3.1 8.2 0 11.4zm118.7-44.4c4.4 0 8-3.6 8-8V9c-.2-10.6-15.9-10.6-16.1 0v25.3c0 4.4 3.6 8 8.1 8zm144.3 406.2c0-2.7 1.5-4.6 4.6-8 3.6-4.1 8.6-9.8 9-19 .5-10.8-6.5-17.5-12.7-23.4-15.9-13.5-20-31-13.1-54.4 1.2-4.3-1.3-8.7-5.5-9.9-4.3-1.2-8.7 1.2-10 5.5-5.6 19.7-5 36.8 1.9 50.8 4.5 9 10.7 14.9 15.6 19.6 5.7 5.4 7.8 7.8 7.7 11.1-.2 3.3-1.9 5.4-5.1 9.1-20.2 21.5-1.5 39.6 18.2 51.1-23.6 1.3-41.9.6-76.1 7.9-21.4 6-44.6 9.8-63.8-1.9h-21.8c4.9 12.4 22.8 18.8 33.8 21.7 19.1 5.4 36.9.1 55.3-4.1 25.9-5.7 46.6-6.5 61.8-7.1 17.7-.6 29.4-1 31.5-11.8 3.7-17.1-30.1-22.9-31.3-37.2z" fill="#5BB12F" opacity="1" data-original="#000000"></path></g></svg>