<svg xmlns="http://www.w3.org/2000/svg" version="1.1" xmlns:xlink="http://www.w3.org/1999/xlink" width="64" height="64" x="0" y="0" viewBox="0 0 28 28" style="enable-background:new 0 0 512 512" xml:space="preserve" class=""><g><path d="M23.645 12c.09-.36.14-.73.14-1.11 0-2.15-1.55-3.95-3.61-4.37-.21-1-.74-1.9-1.55-2.58a4.435 4.435 0 0 0-3.62-.96c-.36.07-.69.18-1.01.33a4.27 4.27 0 0 0-1.01-.33c-1.29-.23-2.61.12-3.61.96-.81.67-1.35 1.58-1.55 2.58-2.06.42-3.61 2.22-3.61 4.37 0 .37.05.74.14 1.11a5.24 5.24 0 0 0-2.28 5.26c.34 2.13 2.06 3.88 4.17 4.27a4.915 4.915 0 0 0 1.6.06c0 .06.02.13.03.19a4.43 4.43 0 0 0 3.24 3.18c.99.24 1.99.14 2.88-.26.57.26 1.18.39 1.81.39.36 0 .71-.04 1.07-.13 1.57-.37 2.85-1.62 3.24-3.19.02-.06.03-.12.03-.18a4.846 4.846 0 0 0 1.6-.06c2.11-.39 3.83-2.14 4.18-4.27a5.24 5.24 0 0 0-2.28-5.26zm-8.94 7.36c-.19.19-.45.29-.71.29-.26 0-.52-.1-.7-.29a.977.977 0 0 1 0-1.41c.36-.37 1.04-.38 1.41 0 .19.18.29.44.29.7 0 .27-.1.52-.29.71zm1.138-4.99c-.316.233-.845.733-.845 1.467a1 1 0 1 1-2 .002c0-1.18.604-2.301 1.657-3.079.292-.216.555-.646.41-1.203a1.081 1.081 0 0 0-.756-.757 1.129 1.129 0 0 0-.99.19c-.273.213-.43.532-.43.878a1 1 0 0 1-2 0c0-.969.44-1.865 1.206-2.459a3.12 3.12 0 0 1 2.714-.546 3.094 3.094 0 0 1 2.193 2.194 3.122 3.122 0 0 1-1.159 3.312z" fill="#5BB12F" opacity="1" data-original="#000000"></path></g></svg>